<svg width="21" height="21" viewBox="0 0 21 21" fill="none" xmlns="http://www.w3.org/2000/svg">
<g clip-path="url(#clip0_543_20570)">
<path d="M20.3052 10.7905C20.3052 10.1107 20.2501 9.42729 20.1325 8.75854H10.7002V12.6094H16.1016C15.8775 13.8513 15.1573 14.95 14.1027 15.6481V18.1467H17.3252C19.2176 16.4051 20.3052 13.833 20.3052 10.7905Z" fill="#4285F4"/>
<path d="M10.6999 20.5608C13.397 20.5608 15.6714 19.6753 17.3286 18.1467L14.1061 15.6481C13.2096 16.2581 12.0521 16.6035 10.7036 16.6035C8.09474 16.6035 5.88272 14.8434 5.08904 12.4771H1.76367V15.0528C3.46127 18.4296 6.91892 20.5608 10.6999 20.5608Z" fill="#34A853"/>
<path d="M5.08564 12.4771C4.66676 11.2351 4.66676 9.89026 5.08564 8.64829V6.07251H1.76395C0.345611 8.89816 0.345611 12.2272 1.76395 15.0528L5.08564 12.4771Z" fill="#FBBC04"/>
<path d="M10.6999 4.51811C12.1256 4.49606 13.5035 5.03253 14.536 6.01728L17.3911 3.16224C15.5833 1.46465 13.1838 0.531337 10.6999 0.560732C6.91892 0.560732 3.46126 2.69191 1.76367 6.0724L5.08537 8.64818C5.87537 6.27817 8.09106 4.51811 10.6999 4.51811Z" fill="#EA4335"/>
</g>
<defs>
<clipPath id="clip0_543_20570">
<rect width="20" height="20" fill="white" transform="translate(0.5 0.560059)"/>
</clipPath>
</defs>
</svg>
