<svg width="142" height="29" viewBox="0 0 142 29" fill="none" xmlns="http://www.w3.org/2000/svg">
<path d="M123.268 28.1159V0.439941H128.115V15.9799L135.737 7.98794H141.768L134.331 16.0909L141.916 28.1159H136.366L130.705 19.1619L128.115 21.9739V28.1159H123.268Z" fill="#E53724"/>
<path d="M108.973 28.5599C107 28.5599 105.199 28.1036 103.571 27.1909C101.968 26.2783 100.685 25.0326 99.7231 23.4539C98.7858 21.8753 98.3171 20.0746 98.3171 18.0519C98.3171 16.0293 98.7858 14.2286 99.7231 12.6499C100.685 11.0713 101.968 9.82561 103.571 8.91295C105.174 8.00028 106.975 7.54395 108.973 7.54395C110.946 7.54395 112.735 8.00028 114.338 8.91295C115.941 9.82561 117.212 11.0713 118.149 12.6499C119.111 14.2286 119.592 16.0293 119.592 18.0519C119.592 20.0746 119.111 21.8876 118.149 23.4909C117.187 25.0696 115.904 26.3153 114.301 27.2279C112.698 28.1159 110.922 28.5599 108.973 28.5599ZM108.973 24.1199C110.058 24.1199 111.008 23.8609 111.822 23.3429C112.661 22.8249 113.314 22.1096 113.783 21.1969C114.276 20.2596 114.523 19.2113 114.523 18.0519C114.523 16.8926 114.276 15.8566 113.783 14.9439C113.314 14.0313 112.661 13.3159 111.822 12.7979C111.008 12.2553 110.058 11.9839 108.973 11.9839C107.888 11.9839 106.913 12.2553 106.05 12.7979C105.211 13.3159 104.545 14.0313 104.052 14.9439C103.583 15.8566 103.349 16.8926 103.349 18.0519C103.349 19.2113 103.583 20.2596 104.052 21.1969C104.545 22.1096 105.211 22.8249 106.05 23.3429C106.913 23.8609 107.888 24.1199 108.973 24.1199Z" fill="#E53724"/>
<path d="M86.9701 28.116V4.99103H79.8291V0.551025H99.0691V4.99103H92.0391V28.116H86.9701Z" fill="#E53724"/>
<path d="M72.3569 28.116V0.551025H77.2039V28.116H72.3569Z" fill="#253137"/>
<path d="M56.9988 28.5599C54.9022 28.5599 53.2248 28.0419 51.9668 27.0059C50.7088 25.9699 50.0798 24.5639 50.0798 22.7879C50.0798 21.1106 50.6472 19.7169 51.7818 18.6069C52.9165 17.4969 54.6678 16.7446 57.0358 16.3499L63.0298 15.3879V14.7219C63.0298 13.8586 62.6845 13.1433 61.9938 12.5759C61.3278 11.9839 60.4398 11.6879 59.3298 11.6879C58.2692 11.6879 57.3442 11.9716 56.5548 12.5389C55.7655 13.0816 55.1858 13.8093 54.8158 14.7219L50.8568 12.7979C51.4488 11.2193 52.5342 9.94895 54.1128 8.98695C55.6915 8.02495 57.4922 7.54395 59.5148 7.54395C61.1675 7.54395 62.6105 7.85228 63.8438 8.46895C65.1018 9.06095 66.0885 9.89961 66.8038 10.9849C67.5192 12.0703 67.8768 13.3159 67.8768 14.7219V28.1159H63.2888V25.9699C61.7102 27.6966 59.6135 28.5599 56.9988 28.5599ZM55.1118 22.6029C55.1118 23.2936 55.3708 23.8486 55.8888 24.2679C56.4068 24.6626 57.0728 24.8599 57.8868 24.8599C59.4162 24.8599 60.6495 24.3789 61.5868 23.4169C62.5488 22.4549 63.0298 21.2833 63.0298 19.9019V19.0879L57.9608 19.9389C56.0615 20.3089 55.1118 21.1969 55.1118 22.6029Z" fill="#253137"/>
<path d="M37.0552 28.1159V7.98787H41.6062V10.8369C42.1242 9.67754 42.8518 8.87587 43.7892 8.43187C44.7265 7.98787 45.8118 7.76587 47.0452 7.76587H48.2292V12.0579H46.4902C45.1335 12.0579 44.0235 12.4895 43.1602 13.3529C42.3215 14.1915 41.9022 15.3755 41.9022 16.9049V28.1159H37.0552Z" fill="#253137"/>
<path d="M27.7329 5.73103V0.551025H32.5799V5.73103H27.7329ZM27.7329 28.116V7.98803H32.5799V28.116H27.7329Z" fill="#253137"/>
<path d="M9.70399 28.116L0.0839844 0.551025H5.55998L12.59 21.752L19.583 0.551025H25.059L15.476 28.116H9.70399Z" fill="#253137"/>
</svg>
